<svg version="1.1" id="Layer_1" xmlns="http://www.w3.org/2000/svg" xmlns:xlink="http://www.w3.org/1999/xlink" x="0px" y="0px" viewBox="0 0 2568 643" style="enable-background:new 0 0 2568 643;" xml:space="preserve">
<style type="text/css">
	.st0{fill:#FFFFFF;}
	.st1{fill-rule:evenodd;clip-rule:evenodd;}
</style>
<rect class="st0" width="2568" height="643"></rect>

<path d="M1411.3,220.7c-3.6,0-6.5,2.9-6.5,6.6v188.4c0,3.6,2.9,6.6,6.5,6.6h151c1.8,0,3.5-0.8,4.8-2.1l18.9-20.3
	c3.9-4.2,1-11.1-4.8-11.1h-131.8c-3.6,0-6.5-2.9-6.5-6.6v-155c0-3.6-2.9-6.6-6.5-6.6H1411.3z" data-index="1" style="visibility: hidden;"></path>

<path class="st1" d="M1805.5,415.7c0,3.6,2.9,6.6,6.5,6.6h25.6c3.6,0,6.5-2.9,6.5-6.6V259.8c0,0,0,0,0,0l0,0l0,0c0,0,0,0,0,0
	c0-0.5,0-1.1,0-1.6c0-20.1-15.7-36.5-35.3-37.3c0,0,0,0,0,0c0,0,0,0,0,0h-131.5c0,0,0,0,0,0c0,0,0,0,0,0c-0.5,0-1.1,0-1.6,0
	c-20.4,0-36.9,16.7-36.9,37.4c0,0.5,0,1.1,0,1.6c0,0,0,0,0,0s0,0,0,0v155.9c0,3.6,2.9,6.6,6.5,6.6h25.6c3.6,0,6.5-2.9,6.5-6.6v-64.9
	c0-3.6,2.9-6.6,6.5-6.6h115.4c3.6,0,6.5,2.9,6.5,6.6V415.7z M1677.2,308.4V276c0-12.6,10.1-22.8,22.5-22.8h83.4
	c12.4,0,22.5,10.2,22.5,22.8v32.4c0,3.6-2.9,6.6-6.5,6.6h-115.4C1680.1,315,1677.2,312.1,1677.2,308.4z" data-index="3" style="visibility: hidden;"></path>

<path d="M1940.5,220.7c1.9,0,3.7,0.8,4.9,2.3l114.8,136.9c3.9,4.6,11.4,1.8,11.4-4.3V227.3c0-3.6,2.9-6.6,6.5-6.6h25.6
	c3.6,0,6.5,2.9,6.5,6.6v188.4c0,3.6-2.9,6.6-6.5,6.6h-31.8c-0.1,0-0.2-0.1-0.2-0.2c0-0.1,0-0.1-0.1-0.2l-116.8-135.9
	c-3.9-4.6-11.4-1.7-11.4,4.3v125.5c0,3.6-2.9,6.6-6.5,6.6h-25.8c-3.6,0-6.5-2.9-6.5-6.6V227.3c0-3.6,2.9-6.6,6.5-6.6H1940.5z" data-index="5" style="visibility: hidden;"></path>

<path d="M274.4,122c3.2-3.2,7.5-5,12-5h416.5c7.6,0,11.4,9.2,6,14.5l-82.3,82.2c-3.2,3.2-7.5,5-12,5H198.1c-7.6,0-11.4-9.2-6-14.5
	L274.4,122z" data-index="7" style="visibility: hidden;"></path>

</svg>